<svg xmlns="http://www.w3.org/2000/svg" viewBox="0 0 997.52 251.59" fill="#003049"><g id="Lager_2" data-name="Lager 2"><g id="Lager_1-2" data-name="Lager 1"><path d="M222,37.35a18.6,18.6,0,0,0-7.45-11.1l-.81-.53c-16.31-10.49-38-18.43-62.86-22.55a243.52,243.52,0,0,0-78.33,0C48.07,7.23,26.61,15,10.39,25.28c-.87.55-1.73,1.11-2.57,1.67A19,19,0,0,0,1,38.12q-.21,1.7-.39,3.42c-2.17,21.81,1.15,48.95,10.07,77.65a292.67,292.67,0,0,0,11.23,30.14c10.63,24.37,23.75,45.76,37.77,62.76,16.05,19.47,33.26,33.17,49.2,39a8.29,8.29,0,0,0,5.78,0c15.79-5.91,32.79-19.5,48.66-38.73,14-17,27.19-38.43,37.83-62.84a290.92,290.92,0,0,0,11.23-30.12c8.91-28.69,12.24-55.8,10.08-77.6C222.34,40.27,222.17,38.79,222,37.35ZM46,173.09A281.14,281.14,0,0,1,31.84,145,281.39,281.39,0,0,1,21,116C12.75,89.36,9.33,63.3,11.39,42.61v0c.09-.89.19-1.77.29-2.63a8.25,8.25,0,0,1,2.57-4.32c.66-.44,1.28-.84,1.89-1.22l0,0c15.29-9.68,35.39-16.8,58.12-20.58q8.55-1.41,17.4-2.17Zm65.78,67.53c-7.75-3-16.05-8.27-24.42-15.47L108.49,10.83l3.21,0,2.91,0,21.16,214.5C127.55,232.39,119.39,237.61,111.76,240.62ZM202.1,116.16a282.41,282.41,0,0,1-10.82,29,282.05,282.05,0,0,1-14.15,28.13L131.35,11.62q9,.75,17.73,2.2c23.06,3.83,43.38,11.08,58.76,21l.28.19.37.24a7.84,7.84,0,0,1,2.86,4.2c.16,1.18.28,2.3.39,3.42C213.79,63.52,210.36,89.56,202.1,116.16Z"/><path d="M334.15,75.66l-36.66,94.71h17.16a7.57,7.57,0,0,0,7.15-4.75l5.59-16.51h36L369,165.62a6.87,6.87,0,0,0,2.56,3.42,8,8,0,0,0,4.72,1.33h17L356.64,75.66Zm-1.7,58.5,8.71-25.8q1-2.48,2.08-5.85c.74-2.26,1.46-4.7,2.15-7.35.74,2.6,1.48,5,2.24,7.25l2,5.82,8.71,25.93Z"/><rect x="400.32" y="73.06" width="20.15" height="97.3"/><path d="M472.59,132.28a23.7,23.7,0,0,0,3.16-2.34,19.39,19.39,0,0,0,2.69-3l17.42-24H477.4a8.42,8.42,0,0,0-3.86.78,7,7,0,0,0-2.64,2.47l-12.74,19a5.42,5.42,0,0,1-1.91,1.89,6.59,6.59,0,0,1-2.9.52h-3V73.06H430.21v97.31h20.15V140.53h3.9a6.73,6.73,0,0,1,2.93.49,4.91,4.91,0,0,1,1.88,2.11L471.81,167a5.94,5.94,0,0,0,2.7,2.63,9.5,9.5,0,0,0,3.93.75h18.2l-19-32.24A19.72,19.72,0,0,0,472.59,132.28Z"/><path d="M552.12,111.22a30.61,30.61,0,0,0-10.82-6.89,42,42,0,0,0-28,0,31.12,31.12,0,0,0-10.92,6.89,30.6,30.6,0,0,0-7.09,10.88,39.47,39.47,0,0,0-2.5,14.4,40.15,40.15,0,0,0,2.5,14.53,30.74,30.74,0,0,0,7.09,11,31.28,31.28,0,0,0,10.92,7,41.53,41.53,0,0,0,28,0,30.77,30.77,0,0,0,10.82-7,31.28,31.28,0,0,0,7-11,39.94,39.94,0,0,0,2.5-14.53,39.26,39.26,0,0,0-2.5-14.4A31.13,31.13,0,0,0,552.12,111.22Zm-14.56,40.33q-3.28,4.9-10.24,4.91-7.16,0-10.46-4.91t-3.32-14.92q0-10,3.32-14.88t10.46-4.88q7,0,10.24,4.88t3.28,14.88Q540.84,146.65,537.56,151.55Z"/><rect x="569.44" y="73.06" width="20.15" height="97.3"/><path d="M617.08,93.8a15.73,15.73,0,0,0,5,2.82,17.63,17.63,0,0,0,6,1,18.43,18.43,0,0,0,6.11-1,16.89,16.89,0,0,0,5.17-2.82,13.56,13.56,0,0,0,3.54-4.39,12.5,12.5,0,0,0,1.3-5.75,13.1,13.1,0,0,0-1.3-5.89,13.91,13.91,0,0,0-3.54-4.51,16.27,16.27,0,0,0-5.17-2.9,18.68,18.68,0,0,0-6.11-1,17.87,17.87,0,0,0-6,1,15.18,15.18,0,0,0-5,2.9,14.47,14.47,0,0,0-3.44,4.51,13.1,13.1,0,0,0-1.3,5.89,12.5,12.5,0,0,0,1.3,5.75A14.09,14.09,0,0,0,617.08,93.8Zm7.32-14a5,5,0,0,1,3.93-1.43,4.84,4.84,0,0,1,3.7,1.43,5.41,5.41,0,0,1,1.37,3.9A5.25,5.25,0,0,1,632,87.39a4.8,4.8,0,0,1-3.7,1.47,4.9,4.9,0,0,1-3.93-1.47,5.46,5.46,0,0,1-1.27-3.73A5.64,5.64,0,0,1,624.4,79.76Z"/><path d="M648.06,109.17a23.92,23.92,0,0,0-8.32-5.53,29.27,29.27,0,0,0-11-2,47.63,47.63,0,0,0-16,2.63,41.15,41.15,0,0,0-13.55,8l3.64,6.31a7.44,7.44,0,0,0,2.31,2.5,6.08,6.08,0,0,0,3.54,1,9.56,9.56,0,0,0,4-.78c1.13-.52,2.28-1.11,3.48-1.76a26.06,26.06,0,0,1,4.06-1.75,18.35,18.35,0,0,1,5.85-.78,8.91,8.91,0,0,1,6.92,2.65c1.63,1.78,2.44,4.65,2.44,8.63v2.89a74.08,74.08,0,0,0-19.18,2.08,40.1,40.1,0,0,0-12.09,5.19,18.09,18.09,0,0,0-6.3,6.88,17,17,0,0,0-1.82,7.37,21.18,21.18,0,0,0,1.43,8.05,15.66,15.66,0,0,0,4.06,5.84,17.54,17.54,0,0,0,6.4,3.55,27.6,27.6,0,0,0,8.39,1.21,32.62,32.62,0,0,0,6.27-.56,23.84,23.84,0,0,0,5.33-1.68,30.46,30.46,0,0,0,4.84-2.77q2.34-1.62,4.88-3.77l1.43,3.71a6,6,0,0,0,2.44,3.25,9.4,9.4,0,0,0,4.32.78h9.23V128.25a30.31,30.31,0,0,0-1.82-10.66A24.3,24.3,0,0,0,648.06,109.17ZM635.48,152.3a20.89,20.89,0,0,1-5.92,4.42,16,16,0,0,1-6.82,1.36,9.15,9.15,0,0,1-5.53-1.41c-1.25-.94-1.88-2.56-1.88-4.88a6.38,6.38,0,0,1,.88-3.28,7.42,7.42,0,0,1,3.15-2.69,24,24,0,0,1,6.17-2,52.24,52.24,0,0,1,10-.78Z"/><path d="M706.78,136.47a21.48,21.48,0,0,0-5-3.45,51.1,51.1,0,0,0-5.72-2.43c-1.95-.7-3.86-1.32-5.72-1.89a50.28,50.28,0,0,1-5-1.78,12.39,12.39,0,0,1-3.54-2.18,4.07,4.07,0,0,1-1.33-3.12,4.72,4.72,0,0,1,2-4.07,10,10,0,0,1,5.88-1.46,16.7,16.7,0,0,1,4.74.62,34.12,34.12,0,0,1,3.74,1.33l3.09,1.34a7.15,7.15,0,0,0,2.86.61,4.29,4.29,0,0,0,2.24-.52,5.12,5.12,0,0,0,1.66-1.75l4.55-7.09a27.07,27.07,0,0,0-4.36-3.48,30.32,30.32,0,0,0-5.46-2.76,36.62,36.62,0,0,0-6.4-1.82,37.88,37.88,0,0,0-7-.65,36.14,36.14,0,0,0-11.7,1.72,24.41,24.41,0,0,0-8.32,4.65,18.94,18.94,0,0,0-5,6.79,22.07,22.07,0,0,0-.3,16,17.23,17.23,0,0,0,3.58,5.49,19.76,19.76,0,0,0,5,3.7,46.94,46.94,0,0,0,5.76,2.51q2.92,1,5.75,1.85a43.09,43.09,0,0,1,5,1.76,11.68,11.68,0,0,1,3.57,2.24,4.37,4.37,0,0,1,1.37,3.31,5.23,5.23,0,0,1-1.89,4,6.77,6.77,0,0,1-2.6,1.33,13.71,13.71,0,0,1-4,.49,16.57,16.57,0,0,1-5.5-.78,25.2,25.2,0,0,1-3.8-1.69l-3-1.69a6.34,6.34,0,0,0-3.15-.78,5.59,5.59,0,0,0-3.06.75,6.68,6.68,0,0,0-2,2.05l-4.68,7.41a25.87,25.87,0,0,0,4.68,3.28,35.44,35.44,0,0,0,5.95,2.63,47.86,47.86,0,0,0,6.66,1.76,37.29,37.29,0,0,0,6.89.65,40.39,40.39,0,0,0,12.19-1.69,25.62,25.62,0,0,0,8.9-4.75,19.54,19.54,0,0,0,5.43-7.28,23.11,23.11,0,0,0,1.82-9.23,16.81,16.81,0,0,0-1.34-7A15.09,15.09,0,0,0,706.78,136.47Z"/><path d="M756.67,154.67a2.37,2.37,0,0,0-1.47-.42,2.65,2.65,0,0,0-1.13.22c-.33.16-.67.33-1,.53a7.66,7.66,0,0,1-1.3.51,6.21,6.21,0,0,1-1.86.23,3.85,3.85,0,0,1-3.28-1.53,6.25,6.25,0,0,1-1.14-3.86V116.87h16.39V103.09H745.45V83.4H734.93q-3.64,0-4.42,3.12l-4,16.44L715.82,105v7.87a3.63,3.63,0,0,0,3.77,4h5.72v34.84a24,24,0,0,0,1.3,8.13,16.8,16.8,0,0,0,3.8,6.2,16.63,16.63,0,0,0,6.17,4,23.83,23.83,0,0,0,8.49,1.4,34.71,34.71,0,0,0,10.07-1.47,27.56,27.56,0,0,0,8.77-4.38l-6.1-9.56A5.71,5.71,0,0,0,756.67,154.67Z"/><path d="M820.17,110.05a26.58,26.58,0,0,0-9.55-6,34.89,34.89,0,0,0-12.26-2.08,34.45,34.45,0,0,0-13.87,2.67,31.06,31.06,0,0,0-17.1,17.81,35.56,35.56,0,0,0-2.31,12.8,42.2,42.2,0,0,0,2.7,15.73,32.31,32.31,0,0,0,7.35,11.31A30.46,30.46,0,0,0,786,169.1a37.83,37.83,0,0,0,13.3,2.31,56.09,56.09,0,0,0,7.24-.49,41,41,0,0,0,7.61-1.75,35.24,35.24,0,0,0,7.41-3.52,29.73,29.73,0,0,0,6.72-5.81l-5.85-7.22a4.14,4.14,0,0,0-3.63-1.75,7.57,7.57,0,0,0-3.48.84c-1.11.57-2.32,1.19-3.64,1.89a30.92,30.92,0,0,1-4.52,1.88,19,19,0,0,1-6,.85,15.25,15.25,0,0,1-10.72-3.81c-2.77-2.53-4.49-6.61-5.13-12.25h38.87a6.77,6.77,0,0,0,2.24-.32,2.73,2.73,0,0,0,1.39-1.17,5.83,5.83,0,0,0,.72-2.28,28.27,28.27,0,0,0,.2-3.7,35.59,35.59,0,0,0-2.25-13A27.44,27.44,0,0,0,820.17,110.05Zm-34.74,18.52q1-6.16,4.29-9.46t9-3.28a12.53,12.53,0,0,1,5.53,1.11,10.14,10.14,0,0,1,3.67,2.89,11.39,11.39,0,0,1,2,4.06,17.89,17.89,0,0,1,.61,4.68Z"/><path d="M885,109.17a23.83,23.83,0,0,0-8.32-5.53,29.2,29.2,0,0,0-11-2,47.61,47.61,0,0,0-16,2.63,41.2,41.2,0,0,0-13.56,8l3.64,6.31a7.65,7.65,0,0,0,2.31,2.5,6.12,6.12,0,0,0,3.54,1,9.53,9.53,0,0,0,4-.78c1.13-.52,2.29-1.11,3.48-1.76a26.48,26.48,0,0,1,4.06-1.75,18.39,18.39,0,0,1,5.85-.78,9,9,0,0,1,6.93,2.65c1.62,1.78,2.43,4.65,2.43,8.63v2.89a74,74,0,0,0-19.17,2.08,40.1,40.1,0,0,0-12.09,5.19,18.2,18.2,0,0,0-6.31,6.88,17,17,0,0,0-1.82,7.37,21.18,21.18,0,0,0,1.43,8.05,15.68,15.68,0,0,0,4.07,5.84,17.46,17.46,0,0,0,6.4,3.55,27.53,27.53,0,0,0,8.38,1.21,32.73,32.73,0,0,0,6.28-.56,24,24,0,0,0,5.33-1.68,30.9,30.9,0,0,0,4.84-2.77q2.34-1.62,4.87-3.77l1.43,3.71a6,6,0,0,0,2.44,3.25,9.46,9.46,0,0,0,4.32.78h9.23V128.25a30.09,30.09,0,0,0-1.82-10.66A24,24,0,0,0,885,109.17ZM872.46,152.3a20.86,20.86,0,0,1-5.91,4.42,16,16,0,0,1-6.83,1.36,9.14,9.14,0,0,1-5.52-1.41c-1.26-.94-1.89-2.56-1.89-4.88a6.48,6.48,0,0,1,.88-3.28,7.55,7.55,0,0,1,3.15-2.69,24.18,24.18,0,0,1,6.18-2,52.13,52.13,0,0,1,9.94-.78Z"/><path d="M996,116.71a21.65,21.65,0,0,0-4.58-8.06,19.61,19.61,0,0,0-7.51-5,28.68,28.68,0,0,0-10.27-1.72,31.2,31.2,0,0,0-6.27.65,25.85,25.85,0,0,0-6,2,22.27,22.27,0,0,0-5.27,3.57,20,20,0,0,0-4.12,5.33,19.77,19.77,0,0,0-6.08-8.42,15.85,15.85,0,0,0-10.11-3.15,21.85,21.85,0,0,0-5.36.62,21.45,21.45,0,0,0-4.55,1.69,22.34,22.34,0,0,0-3.93,2.53,36.46,36.46,0,0,0-3.51,3.22l-1.11-3.64a4.51,4.51,0,0,0-1.79-2.53,5.48,5.48,0,0,0-3.15-.85H899.89v67.41H920V121.62a19,19,0,0,1,4.58-3.32,11.34,11.34,0,0,1,5.17-1.23q4.43,0,6.7,2.34t2.27,8.12v42.84h20.15V127.53q0-5.07,2.7-7.77a9.23,9.23,0,0,1,6.79-2.69q9,0,9,10.46v42.84h20.15V127.53A34.76,34.76,0,0,0,996,116.71Z"/></g></g></svg>
